# xmcd
#
# Track frame offsets:
#	150
#	23927
#	39143
#	62734
#	81501
#	96556
#	125715
#	155764
#	176733
#	199644
#	231648
#
# Disc length: 3315 seconds
#
# Revision: 1
# Processed by: cddbd v1.5.1PL2 Copyright (c) Steve Scherf et al.
# Submitted via: EasyCDDAExtractor 9.0.0.1
#
DISCID=9e0cf10b
DTITLE=Saxon - Wulfrun Hall Wolverhampton 24-04-06 Disc 1
DYEAR=2006
DGENRE=Hard Rock
TTITLE0=Motorcycle Man
TTITLE1=Backs To The Wall
TTITLE2=Strong Arm Of The Law
TTITLE3=Stallions Of The Highway
TTITLE4=Never Surrender
TTITLE5=The Power and The Glory
TTITLE6=Frozen Rainbow
TTITLE7=Suzie Hold On
TTITLE8=And The Bands Played On
TTITLE9=The Eagle Has Landed
TTITLE10=To Hell And Back Again
EXTD=
EXTT0=
EXTT1=
EXTT2=
EXTT3=
EXTT4=
EXTT5=
EXTT6=
EXTT7=
EXTT8=
EXTT9=
EXTT10=
PLAYORDER=
